<svg width="64" height="64" viewBox="0 0 64 64" fill="none" xmlns="http://www.w3.org/2000/svg">
<path d="M53.7199 22.0534L57.8879 17.8854L54.1173 14.1147L49.5626 18.6667C46.7626 16.9867 43.4986 16.0001 39.9999 16.0001C29.7093 16.0001 21.3333 24.3734 21.3333 34.6667C21.3333 44.9601 29.7093 53.3334 39.9999 53.3334C50.2906 53.3334 58.6666 44.9601 58.6666 34.6667C58.6645 29.9895 56.898 25.4852 53.7199 22.0534ZM39.9999 48.0001C32.6479 48.0001 26.6666 42.0187 26.6666 34.6667C26.6666 27.3147 32.6479 21.3334 39.9999 21.3334C47.3519 21.3334 53.3333 27.3147 53.3333 34.6667C53.3333 42.0187 47.3519 48.0001 39.9999 48.0001Z" fill="var(--accent-color)"/>
<path d="M37.3333 26.6667H42.6666V37.3333H37.3333V26.6667ZM34.6666 8H45.3333V13.3333H34.6666V8ZM7.99992 21.3333H18.6666V26.6667H7.99992V21.3333ZM7.99992 42.6667H18.6666V48H7.99992V42.6667ZM5.33325 32H15.9733V37.3333H5.33325V32Z" fill="var(--accent-color)"/>
</svg>
